<svg xmlns="http://www.w3.org/2000/svg" viewBox="0 0 47.03 77.46"><defs><style>.cls-1{fill:#fff;}</style></defs><title>ai-interfacelogo-desktop-white</title><g id="Layer_2" data-name="Layer 2"><g id="desktop-mockup"><g id="logo-desktop-white"><g id="logo-1-dots"><g id="logo-1-dots-2"><g id="letter-j-dots"><path class="cls-1" d="M6.55,77A7.07,7.07,0,0,1,2,75.64,4.23,4.23,0,0,1,.5,72.16a4.11,4.11,0,0,1,1.22-3.1,4.33,4.33,0,0,1,3-1.17h.14c2,0,3.24,1.18,3.85,3.6a4,4,0,0,0,.8,1.88,1.91,1.91,0,0,0,1.26.48h.16a2.92,2.92,0,0,0,2-.9,8.41,8.41,0,0,0,1.93-4,32.79,32.79,0,0,0,.87-7.38V27a4.85,4.85,0,0,0-1.8-4.07,8.08,8.08,0,0,0-5.09-1.38H5V19.47l17.43-.58v38.7a20,20,0,0,1-4.92,13.89C14.19,75.11,10.52,77,6.55,77Z"/><path class="cls-1" d="M21.89,19.41V57.59A19.48,19.48,0,0,1,17.1,71.14c-3.18,3.53-6.73,5.32-10.55,5.32a6.51,6.51,0,0,1-4.2-1.21A3.77,3.77,0,0,1,1,72.12a3.57,3.57,0,0,1,1.06-2.69,3.8,3.8,0,0,1,2.62-1h.15c1.09,0,2.63.34,3.35,3.23a4.42,4.42,0,0,0,.94,2.11l0,0,0,0a2.42,2.42,0,0,0,1.56.57h.16a3.39,3.39,0,0,0,2.32-1A9,9,0,0,0,15.29,69a33.7,33.7,0,0,0,.88-7.49V27a5.35,5.35,0,0,0-2-4.47,8.63,8.63,0,0,0-5.4-1.48H5.46V20l16.43-.54m1-1L4.46,19v3.06H8.78a7.64,7.64,0,0,1,4.79,1.27A4.37,4.37,0,0,1,15.17,27V61.53a32.31,32.31,0,0,1-.86,7.26,8.1,8.1,0,0,1-1.8,3.81,2.43,2.43,0,0,1-1.66.74h-.12A1.43,1.43,0,0,1,9.81,73a3.93,3.93,0,0,1-.66-1.64q-1-4-4.32-4H4.68A4.85,4.85,0,0,0,1.37,68.7,4.63,4.63,0,0,0,0,72.16,4.73,4.73,0,0,0,1.71,76a7.46,7.46,0,0,0,4.83,1.44q6.23,0,11.3-5.65a20.35,20.35,0,0,0,5.05-14.22V18.37Z"/></g><g id="hack"><path class="cls-1" d="M29.17,49.3h9.47L38.15,49a4,4,0,0,0,1.65.36h4.71a1.24,1.24,0,0,0,.27,0,1.47,1.47,0,0,0,.95-.35l.06,0,.05-.06a3.68,3.68,0,0,0,.34-.69v3.13a1.94,1.94,0,0,0-.28-.48,1.7,1.7,0,0,0-1.13-.45H31.05a2,2,0,0,0-1.29.48,1.88,1.88,0,0,0-.47.86Zm7.07-2a5.35,5.35,0,0,1-.47-.67,3.83,3.83,0,0,1-.52-1.93A3.2,3.2,0,0,1,35.7,43,2.73,2.73,0,0,1,36.91,42a5.33,5.33,0,0,1,2.18-.46h5.57a1.26,1.26,0,0,0,.29,0,1.1,1.1,0,0,0,.85-.28,3.35,3.35,0,0,0,.38-.72v4.15H46v-.16c.11-1-.11-1.3-.19-1.38a1.73,1.73,0,0,0-1.07-.54H39.29a4.06,4.06,0,0,0-2.52.87,2.65,2.65,0,0,0-1,2.12A3.28,3.28,0,0,0,36.24,47.29Z"/><path class="cls-1" d="M45.68,42v.49a2.35,2.35,0,0,0-.89-.3H39.22a4.59,4.59,0,0,0-2.76,1,3.07,3.07,0,0,0-.56.58,3.68,3.68,0,0,1,.21-.45,2.24,2.24,0,0,1,1-.79,4.87,4.87,0,0,1,1.95-.41h5.54l.33,0a2,2,0,0,0,.73-.12m0,7.64v.47a2.23,2.23,0,0,0-.91-.2h-.13l-13.44,0h-.15a2.47,2.47,0,0,0-1.34.4l0-.49H44.47a1.55,1.55,0,0,0,.31,0,2,2,0,0,0,.9-.22m1-10.32h-.9v.86a2.29,2.29,0,0,1-.35.82.7.7,0,0,1-.48.12,2.07,2.07,0,0,1-.28,0H39.08a5.93,5.93,0,0,0-2.35.49,3.22,3.22,0,0,0-1.46,1.17,3.65,3.65,0,0,0-.52,2,4.33,4.33,0,0,0,.59,2.19A6.46,6.46,0,0,0,37.1,48.8H28.64L28.85,53h.88v-.7a1.37,1.37,0,0,1,.36-1,1.48,1.48,0,0,1,1-.36h.12l13.5,0h.1a1.18,1.18,0,0,1,.74.27,1.21,1.21,0,0,1,.27.9v.62h.9v-6h-.9v1.05a3.21,3.21,0,0,1-.36.83,1,1,0,0,1-.64.23.78.78,0,0,1-.22,0H39.81a3.47,3.47,0,0,1-1.7-.44,3.64,3.64,0,0,1-1.36-1.19,2.91,2.91,0,0,1-.45-1.54,2.17,2.17,0,0,1,.79-1.73,3.66,3.66,0,0,1,2.2-.75h5.38a1.21,1.21,0,0,1,.75.36c.16.19.07,1.06.07,1.06v.66h1.19v-6Z"/><path class="cls-1" d="M44.25,37.41a3,3,0,0,1-2.61-1.89,11.37,11.37,0,0,1-1.1-2.85,6.13,6.13,0,0,0,.86,1.72,3,3,0,0,0,2.33,1.15H44a2.56,2.56,0,0,0,1.67-.62,2.13,2.13,0,0,0,.7-1.68,3.08,3.08,0,0,0,0-.61,4.75,4.75,0,0,1,.25,1.6c0,1.74-.57,2.75-1.73,3.1a1.37,1.37,0,0,1-.34.07Zm-6.35-.6A2.42,2.42,0,0,1,36,35.62a3.84,3.84,0,0,1-.33-.52,1.21,1.21,0,0,0,1,.6,1.75,1.75,0,0,0,.93-.42,1.11,1.11,0,0,1,.6-.24.73.73,0,0,1,.53.22.78.78,0,0,1,.21.57.89.89,0,0,1-.27.7A1,1,0,0,1,37.9,36.81ZM35,32a4.2,4.2,0,0,1,.78-2.61,2.36,2.36,0,0,1,1.84-.92h6.61a2.8,2.8,0,0,0,1.33-.34A1.35,1.35,0,0,0,46.28,27a2.44,2.44,0,0,0-.12-.61,2.18,2.18,0,0,1,.36,1.17,1.7,1.7,0,0,1-.36,1.11,3.23,3.23,0,0,1-1.39.85l-.68.21a4.33,4.33,0,0,0-1.94-.46H39.84l0,.3H37.79a2.62,2.62,0,0,0-2,.94A3.29,3.29,0,0,0,35,32Z"/><path class="cls-1" d="M45,28.93l-.32.12-.5.15a5.2,5.2,0,0,0-.55-.21h.69a3.21,3.21,0,0,0,.68-.07M39.3,29v.09H37.79a3,3,0,0,0-1.08.19,1.76,1.76,0,0,1,.95-.28H39.3m6.63,6.34a1.73,1.73,0,0,1-1.28,1.52.86.86,0,0,1-.23,0h-.17a2.18,2.18,0,0,1-1.87-1.15,3.43,3.43,0,0,0,1.35.28H44a3.18,3.18,0,0,0,2-.71m-7.79.21a.23.23,0,0,1,.15.06.24.24,0,0,1,.08.21v.07a.35.35,0,0,1-.12.29.48.48,0,0,1-.34.14h-.06a1.24,1.24,0,0,1-.71-.22,2,2,0,0,0,.69-.41.65.65,0,0,1,.31-.14m7.93-10-.7.45a1.71,1.71,0,0,1,.41,1,.82.82,0,0,1-.42.71,2.3,2.3,0,0,1-1.09.28H37.66a2.84,2.84,0,0,0-2.23,1.1,5,5,0,0,0-.89,3.19,5.93,5.93,0,0,0,1,3.64,2.88,2.88,0,0,0,2.28,1.39h.06a1.51,1.51,0,0,0,1-.42,1.39,1.39,0,0,0,.42-1,1.26,1.26,0,0,0-.36-1,1.23,1.23,0,0,0-.87-.36h0a1.61,1.61,0,0,0-.89.37,1.25,1.25,0,0,1-.6.29c-.21,0-.44-.18-.66-.56a3.6,3.6,0,0,1-.46-1.87,2.73,2.73,0,0,1,.68-1.93,2.09,2.09,0,0,1,1.63-.76h1.79a15,15,0,0,0,1.62,5.69,3.55,3.55,0,0,0,3,2.14h.24a2.34,2.34,0,0,0,.46-.09C46.33,37.39,47,36.2,47,34.24a5.17,5.17,0,0,0-.42-2.16A7.88,7.88,0,0,0,44.92,30a3.84,3.84,0,0,0,1.64-1A2.25,2.25,0,0,0,47,27.56a2.75,2.75,0,0,0-1-2ZM43.73,35a2.44,2.44,0,0,1-1.93-.95,9.58,9.58,0,0,1-1.38-4.31h1.73a3.79,3.79,0,0,1,2.6,1,3.28,3.28,0,0,1,1.08,2.45,1.67,1.67,0,0,1-.52,1.28A2.11,2.11,0,0,1,44,35h-.23Z"/><path class="cls-1" d="M41.06,23.67a5.92,5.92,0,0,1-4.3-1.48,4.9,4.9,0,0,1-1.19-1.77,3.19,3.19,0,0,0,.84.88,7.58,7.58,0,0,0,4.36,1.17,6.43,6.43,0,0,0,4-1.07,3.45,3.45,0,0,0,1.45-2.84c0-.12,0-.24,0-.36a4.65,4.65,0,0,1,0,.66,4.57,4.57,0,0,1-1.4,3.46A5.25,5.25,0,0,1,41.06,23.67ZM38,17a1.06,1.06,0,0,1-.68-.28,1.08,1.08,0,0,0-.6-.31h-.15a1.39,1.39,0,0,0-.94.53,3.56,3.56,0,0,1,.43-.66,2.18,2.18,0,0,1,1.66-.9h0a1.15,1.15,0,0,1,.78.27.77.77,0,0,1,.07,1.09A.77.77,0,0,1,38,17Z"/><path class="cls-1" d="M37.78,15.92a.58.58,0,0,1,.39.15.28.28,0,0,1,0,.38.26.26,0,0,1-.18.09.58.58,0,0,1-.35-.13,1.64,1.64,0,0,0-.52-.35,1.15,1.15,0,0,1,.57-.14h.06m6,6.58a5.14,5.14,0,0,1-2.73.67,6.74,6.74,0,0,1-2.59-.45,10.63,10.63,0,0,0,2.34.25,8.47,8.47,0,0,0,3-.47m-.51-7.76-.22.78c1.78.67,2.67,1.68,2.67,3A3,3,0,0,1,44.48,21a6,6,0,0,1-3.67,1h0a7,7,0,0,1-4.08-1.08,2.54,2.54,0,0,1-1.08-2.21A2.18,2.18,0,0,1,36,17.41a.89.89,0,0,1,.68-.47.7.7,0,0,1,.36.19,1.54,1.54,0,0,0,1,.41,1.28,1.28,0,0,0,1-.43,1.27,1.27,0,0,0-.12-1.79,1.56,1.56,0,0,0-1-.4h-.06a2.68,2.68,0,0,0-2,1.08,4.1,4.1,0,0,0-.91,2.73,5.23,5.23,0,0,0,1.65,3.81,6.36,6.36,0,0,0,4.65,1.63,5.74,5.74,0,0,0,4.14-1.49,5,5,0,0,0,1.56-3.82q0-3.18-3.48-4.12Z"/><path class="cls-1" d="M46,12.93v-.44a1.77,1.77,0,0,0-.36-1.17,1.4,1.4,0,0,0-1-.47h-14a1.46,1.46,0,0,0-1.17.52,2.84,2.84,0,0,0-.4.89l-.12-2.49H41.82l-2.61-3,6-4.35a1.71,1.71,0,0,0,.62-.9V4.32a.78.78,0,0,0-.67-.4,1.08,1.08,0,0,0-.63.23L39.93,7.52l1.93,2.25h3a1.3,1.3,0,0,0,.89-.45l0-.05,0,0c.12-.24.23-.48.33-.73v4.43ZM35.58,2.1A4.06,4.06,0,0,0,36.5,4l.61.68a1.11,1.11,0,0,0-.46-.11,1,1,0,0,0-.93.62,3,3,0,0,0-.14.39Z"/><path class="cls-1" d="M45.38,3v.47l-.2,0h0a1.65,1.65,0,0,0-.66.17L45.38,3m-4,2.9-1.26.92L40,6.88h0l1.39-1m4.34,4.18v.64a2,2,0,0,0-1.12-.34h-14a1.93,1.93,0,0,0-1.09.34l0-.41H45a1.64,1.64,0,0,0,.69-.21m.7-10h-.89V.71A1.57,1.57,0,0,1,45,2L39.18,6.2,36.87,3.64a4.22,4.22,0,0,1-.94-2.7h-.85V6.89h.84a3.79,3.79,0,0,1,.25-1.53A.54.54,0,0,1,36.65,5a1.31,1.31,0,0,1,.83.53l3.24,3.7H28.36l.21,4.16h.86V13a2.21,2.21,0,0,1,.37-1.32.93.93,0,0,1,.72-.35H44.6a.84.84,0,0,1,.63.28,1.26,1.26,0,0,1,.26.86v.94h1.19V7.48h-.9V8.1a5.87,5.87,0,0,1-.37.9.78.78,0,0,1-.51.27H42.09L40.66,7.6l4.22-3.06a.66.66,0,0,1,.33-.12c.12,0,.22.08.29.24a1.3,1.3,0,0,1,0,.91v.72h.89V.05Z"/></g><g id="blue-dot"><circle class="cls-1" cx="37.42" cy="67.78" r="9.01"/><path class="cls-1" d="M37.42,59.27a8.51,8.51,0,1,1-8.51,8.51,8.52,8.52,0,0,1,8.51-8.51m0-1a9.51,9.51,0,1,0,9.51,9.51,9.51,9.51,0,0,0-9.51-9.51Z"/></g><g id="black-dot-j"><circle class="cls-1" cx="15.57" cy="5.8" r="5.3"/><path class="cls-1" d="M15.57,1a4.8,4.8,0,1,1-4.8,4.8A4.8,4.8,0,0,1,15.57,1m0-1a5.8,5.8,0,1,0,5.8,5.8A5.8,5.8,0,0,0,15.57,0Z"/></g></g></g></g></g></g></svg>