<svg xmlns="http://www.w3.org/2000/svg" xmlns:xlink="http://www.w3.org/1999/xlink" viewBox="0 0 209.32 253.15"><defs><style>.cls-1{fill:url(#linear-gradient);}.cls-2{fill:url(#linear-gradient-2);}.cls-3{fill:url(#linear-gradient-3);}.cls-4{fill:url(#linear-gradient-4);}.cls-5{fill:url(#linear-gradient-5);}.cls-6{fill:url(#linear-gradient-6);}.cls-7{fill:url(#linear-gradient-7);}.cls-8{fill:url(#linear-gradient-8);}.cls-9{fill:url(#linear-gradient-9);}.cls-10{fill:url(#linear-gradient-10);}.cls-11{fill:url(#linear-gradient-11);}.cls-12{fill:url(#linear-gradient-12);}.cls-13{fill:url(#linear-gradient-13);}.cls-14{fill:url(#linear-gradient-14);}.cls-15{fill:url(#linear-gradient-15);}</style><linearGradient id="linear-gradient" x1="114.51" y1="305.82" x2="150.69" y2="300.77" gradientTransform="matrix(1, -0.04, 0.04, 1, -4.91, -98.47)" gradientUnits="userSpaceOnUse"><stop offset="0"/><stop offset="0.26" stop-color="#000201"/><stop offset="0.41" stop-color="#000b04"/><stop offset="0.53" stop-color="#011909"/><stop offset="0.64" stop-color="#022d10"/><stop offset="0.73" stop-color="#03471a"/><stop offset="0.82" stop-color="#046725"/><stop offset="0.91" stop-color="#058d33"/><stop offset="0.99" stop-color="#07b743"/><stop offset="1" stop-color="#07be45"/></linearGradient><linearGradient id="linear-gradient-2" x1="146.41" y1="283.31" x2="162.23" y2="281.1" xlink:href="#linear-gradient"/><linearGradient id="linear-gradient-3" x1="102.6" y1="288.38" x2="127.09" y2="284.96" xlink:href="#linear-gradient"/><linearGradient id="linear-gradient-4" x1="139.09" y1="322.8" x2="164.25" y2="319.29" xlink:href="#linear-gradient"/><linearGradient id="linear-gradient-5" x1="126.41" y1="279.91" x2="146.04" y2="277.17" xlink:href="#linear-gradient"/><linearGradient id="linear-gradient-6" x1="152.95" y1="301.36" x2="167.25" y2="299.37" xlink:href="#linear-gradient"/><linearGradient id="linear-gradient-7" x1="118.1" y1="330.74" x2="137.53" y2="328.03" xlink:href="#linear-gradient"/><linearGradient id="linear-gradient-8" x1="95.96" y1="307.72" x2="110.81" y2="305.65" xlink:href="#linear-gradient"/><linearGradient id="linear-gradient-9" x1="102.55" y1="325.16" x2="115.88" y2="323.3" xlink:href="#linear-gradient"/><linearGradient id="linear-gradient-10" x1="155.53" y1="274.6" x2="178.9" y2="271.34" xlink:href="#linear-gradient"/><linearGradient id="linear-gradient-11" x1="137.21" y1="390.62" x2="154.52" y2="388.2" gradientTransform="matrix(0.96, -0.06, 0, 0.78, -0.72, -47.93)" xlink:href="#linear-gradient"/><linearGradient id="linear-gradient-12" x1="170.31" y1="301.8" x2="204.52" y2="297.03" xlink:href="#linear-gradient"/><linearGradient id="linear-gradient-13" x1="116.44" y1="331.36" x2="138.77" y2="328.24" gradientTransform="matrix(0.83, -0.02, 0.04, 0.78, -28.05, -51.16)" xlink:href="#linear-gradient"/><linearGradient id="linear-gradient-14" x1="127.9" y1="256.52" x2="149.44" y2="253.52" xlink:href="#linear-gradient"/><linearGradient id="linear-gradient-15" x1="97.89" y1="328.33" x2="105.53" y2="327.27" xlink:href="#linear-gradient"/></defs><title>logo-2-turtle</title><g id="Layer_2" data-name="Layer 2"><g id="logo-2-turtle"><g id="logo-2-turtle-2" data-name="logo-2-turtle"><g id="turtle"><path class="cls-1" d="M133.07,184.61l-11.35,11.13a5.28,5.28,0,0,0-1.46,4.93L122.58,211a5.3,5.3,0,0,0,4.61,4.1L140,216.47a5.29,5.29,0,0,0,4.25-1.49l11.35-11.13a5.28,5.28,0,0,0,1.46-4.93l-2.32-10.36a5.3,5.3,0,0,0-4.61-4.1l-12.77-1.34A5.3,5.3,0,0,0,133.07,184.61Z"/><path class="cls-2" d="M152.3,179.52l6.63,5.82a2.39,2.39,0,0,0,2.2.52l5.46-1.42a2.43,2.43,0,0,0,.93-4.21l-11-9.1a2.42,2.42,0,0,0-3.9,1.31l-1.1,4.71A2.39,2.39,0,0,0,152.3,179.52Z"/><path class="cls-3" d="M118.6,193.15,132,181.68c.56-.49.4-1.49-.41-2.45l-3.19-3.78c-1.18-1.4-3.17-2.07-4-1.34a36.25,36.25,0,0,0-14.78,13c-.91.8-1.51,3.23.34,4.14l6.28,1.81A2.3,2.3,0,0,0,118.6,193.15Z"/><path class="cls-4" d="M157.41,207.12l-11.27,10.56a1.12,1.12,0,0,0-.31,1.2l3.15,8.66a1.39,1.39,0,0,0,2.23.44c7.68-5.39,14.08-11.25,18.34-17.86a1.17,1.17,0,0,0-.78-2l-10.21-1.36A1.45,1.45,0,0,0,157.41,207.12Z"/><path class="cls-5" d="M148,168.64l-14.91,1.41a2.45,2.45,0,0,0-1.88,3.67l2.15,3.69a2.5,2.5,0,0,0,1.81,1.19l12.13,1.5a2.45,2.45,0,0,0,2.73-2.19l.63-6.6A2.44,2.44,0,0,0,148,168.64Z"/><path class="cls-6" d="M173.09,200.94l-.83-11.17a3.31,3.31,0,0,0-3.62-3.05l-7.8.72a3.33,3.33,0,0,0-2.91,4.1l2.66,10.9a3.33,3.33,0,0,0,3.48,2.52l6-.46A3.32,3.32,0,0,0,173.09,200.94Z"/><path class="cls-7" d="M129.76,233.64l12.32-1.89a3.25,3.25,0,0,0,2.75-3.6l-.61-5.19a3.25,3.25,0,0,0-3.3-2.88l-13.24.27a3.27,3.27,0,0,0-3.12,4l1.53,6.8A3.26,3.26,0,0,0,129.76,233.64Z"/><path class="cls-8" d="M103.2,199.06l-.41,9.39a3.23,3.23,0,0,0,3.1,3.38l8.72.34a3.22,3.22,0,0,0,3.24-4.1L115,197.73a3.24,3.24,0,0,0-3.47-2.34l-5.41.6A3.26,3.26,0,0,0,103.2,199.06Z"/><path class="cls-9" d="M121,215.6l-12.6-.31c-.6.11.46,3.15.88,3.56a48.55,48.55,0,0,0,8.13,7.92c.42.41,3.64,2,3.81,1.46l.69-11.75A.74.74,0,0,0,121,215.6Z"/><path class="cls-10" d="M175.25,157.23l-9,4.81c-.5.22-6.43,6.31-6,6.65l12,9.95c.41.33,7.79-5.17,8-5.64l3.12-9.05C183.6,163.35,175.89,157,175.25,157.23Z"/><path class="cls-11" d="M140.52,245.86l5.39-8.88c.33-.22-.34-.32-1.08-.25l-14.61,2.53c-.63.11-1,.5-.62.71l2.33,13.18C132.32,253.37,140.25,246.2,140.52,245.86Z"/><path class="cls-12" d="M196.75,195.93l-17.67,7.46c-.75.32-1.7,0-1.75-.53l-1.1-12.26c0-.56.83-1,1.62-.79l31.43-4.46C210.13,185.57,197.55,195.59,196.75,195.93Z"/><path class="cls-13" d="M90.32,198.05l8.25-.66a.5.5,0,0,1,.65.58l-1.56,8.83a.52.52,0,0,1-.81.37l-15.12-1.84C81.4,205.08,89.93,198.2,90.32,198.05Z"/><path class="cls-14" d="M140.9,147.08l-6.7,16c-.29.68.09,1.49.68,1.5l13.09.1c.6,0,1-.8.72-1.48l2.54-27.53C150.94,134.94,141.2,146.35,140.9,147.08Z"/><path class="cls-15" d="M105.19,227.26,106,223a1.49,1.49,0,0,1,2.51-.75l3.89,3.9a1.49,1.49,0,0,1-1,2.53l-4.74.32A1.48,1.48,0,0,1,105.19,227.26Z"/></g><path id="letter-h" d="M124.05,139.05a46.76,46.76,0,0,1-8.82,3.32,36.07,36.07,0,0,1-8.38,1.17q-5.44.09-7.5-2.26c-1.37-1.58-2.09-5-2.18-10.17q0-1.85,1.11-28.81T99,50.35q-.4-24-1.85-32.47T92.42,4.49a57.65,57.65,0,0,1,9.23-3.38A32.77,32.77,0,0,1,109.27,0q5.45-.09,7.62,2.56t2.3,10.26q0,1.06-.75,15.19t-.89,27.59a89.08,89.08,0,0,1,18.26-8.26,62.28,62.28,0,0,1,17.65-3q19.75-.33,31,9.58T196,81.9c0,2.28,0,6.16-.16,11.67s-.19,9.87-.13,13.13q.21,13.17,1.69,19.83a27.29,27.29,0,0,0,4.86,11,74.14,74.14,0,0,1-9.52,3.48,30,30,0,0,1-7.32,1.2q-5.56.09-7.67-2.16T175.52,131q-.08-4.5.43-16.8T176.31,94q-.33-19.82-6.39-28.06t-19.9-8a52.3,52.3,0,0,0-14.93,2.5,98.91,98.91,0,0,0-17.33,7.81q-.35,7.82-.37,16.21t.11,17.18q.27,16.2,1.77,24.28A36.77,36.77,0,0,0,124.05,139.05Z"/><path id="letter-j-turtle" d="M43.06,59.91a53.43,53.43,0,0,1,10.48-4.22,36.39,36.39,0,0,1,9.67-1.37q6.71,0,9.13,3.84t2.42,19V82q0,52.63-2.56,76.87t-8.46,37.24a81.61,81.61,0,0,1-20,26.83c-8.59,7.67-20.92,19-25.94,19-2.32,0-16.13,1.43-17.52,0s3-7.2,4.38-9c5.84-7.46,13.2-11.8,17.59-15a51,51,0,0,0,6.05-5.07q11.94-12.35,17-32.1t5-58.09q0-25.73-1.74-40.81T43.06,59.91ZM78.6,14.69A16.07,16.07,0,0,1,73.23,27,19.25,19.25,0,0,1,59.66,32q-7,0-11.21-3.9T44.22,17.54A16.55,16.55,0,0,1,49.59,5.13,18.34,18.34,0,0,1,62.75,0,16.08,16.08,0,0,1,74.1,4.16,13.71,13.71,0,0,1,78.6,14.69Z"/></g></g></g></svg>