<svg xmlns="http://www.w3.org/2000/svg" viewBox="0 0 158.36 260.39"><defs><style>.cls-1{fill:#021166;}</style></defs><title>logo-1-dots</title><g id="Layer_2" data-name="Layer 2"><g id="logo-1-dots"><g id="logo-1-dots-2" data-name="logo-1-dots"><path id="letter-j-dots" d="M15,74H29.51q10.68,0,16.11,4.27T51,90.64V206.8a107.5,107.5,0,0,1-2.87,24.44q-2.23,9-6.06,12.8a8.23,8.23,0,0,1-5.58,2.51A4.8,4.8,0,0,1,33,245.44q-1.12-1.09-2.23-5.52-3.36-13.39-14.52-13.4a16.19,16.19,0,0,0-11.64,4.42A15.33,15.33,0,0,0,0,242.57q0,8.25,5.74,13T22,260.39q20.9,0,38-19T77,193.55V61.64L15,63.7Z"/><g id="hack"><path class="cls-1" d="M97.06,178l-.69-14,28.6,0a21.83,21.83,0,0,1-5.92-6.48,14.67,14.67,0,0,1-2-7.35,12.46,12.46,0,0,1,1.76-6.61,10.83,10.83,0,0,1,4.9-3.91A19.85,19.85,0,0,1,132,138H150.3s2,.25,2.54-.34a8,8,0,0,0,1.2-2.78V132h3v20h-4v-2.22s.32-2.91-.23-3.57A4.25,4.25,0,0,0,150.3,145H132.21c-3.17.25-5.64,1-7.41,2.53a7.3,7.3,0,0,0-2.66,5.82,9.5,9.5,0,0,0,1.51,5.16,11.91,11.91,0,0,0,4.58,4,11.59,11.59,0,0,0,6.48,1.47h15.21a3.4,3.4,0,0,0,2.88-.69,10.4,10.4,0,0,0,1.24-2.78V157h3l0,20h-3v-2.09a4.1,4.1,0,0,0-.92-3,3.88,3.88,0,0,0-2.82-.9l-45.43.05a5,5,0,0,0-3.63,1.18,4.56,4.56,0,0,0-1.2,3.41V178Z"/><path class="cls-1" d="M152.78,87.22l2.37-1.51a9.27,9.27,0,0,1,3.19,6.79,7.47,7.47,0,0,1-1.56,4.81,12.67,12.67,0,0,1-5.51,3.42,25.42,25.42,0,0,1,5.67,7,17.09,17.09,0,0,1,1.42,7.26q0,9.9-7,12a7,7,0,0,1-1.52.29q-6.72.5-11.07-7.16-4.1-7.19-5.47-19.15h-6a7.16,7.16,0,0,0-5.51,2.56,9.43,9.43,0,0,0-2.28,6.51,12.45,12.45,0,0,0,1.54,6.29c.76,1.26,1.51,1.89,2.24,1.89a4.14,4.14,0,0,0,2-1,5.4,5.4,0,0,1,3-1.22,4.18,4.18,0,0,1,3.11,1.21,4.32,4.32,0,0,1,1.21,3.19,4.67,4.67,0,0,1-1.43,3.5,5.05,5.05,0,0,1-3.69,1.41q-4.19,0-7.67-4.67t-3.48-12.26c0-4.68,1-8.24,3-10.71a9.49,9.49,0,0,1,7.5-3.7l21.68,0a7.64,7.64,0,0,0,4.24-.93,2.76,2.76,0,0,0,1.39-2.39A5.77,5.77,0,0,0,152.78,87.22ZM136.12,100q1.44,10.23,4.65,14.49a8.2,8.2,0,0,0,6.91,3.18,7,7,0,0,0,4.9-1.66,5.58,5.58,0,0,0,1.76-4.31,11,11,0,0,0-3.64-8.23,12.69,12.69,0,0,0-9.13-3.48Z"/><path class="cls-1" d="M145,52.22l.77-2.62q11.67,3.13,11.68,13.84a16.89,16.89,0,0,1-5.23,12.85q-5.23,5-13.94,5-10.08,0-15.63-5.46A17.53,17.53,0,0,1,117.09,63a13.69,13.69,0,0,1,3.08-9.18q3.09-3.63,6.87-3.64a5.37,5.37,0,0,1,3.76,1.35A4.27,4.27,0,0,1,128,59a5.25,5.25,0,0,1-3.41-1.36,2.24,2.24,0,0,0-1.21-.65,3,3,0,0,0-2.29,1.58A7.26,7.26,0,0,0,120,62.84a8.51,8.51,0,0,0,3.62,7.44q5.25,3.63,13.81,3.61,8.16,0,12.36-3.23a9.94,9.94,0,0,0,4.2-8.22Q154,55.56,145,52.22Z"/><path class="cls-1" d="M96.08,45,95.4,31l41.74,0L126.23,18.58c-1.07-1.19-2-1.79-2.79-1.79a1.76,1.76,0,0,0-1.59,1.06A12.45,12.45,0,0,0,121,23H118l0-20h2.85c.22,4,1.28,7,3.17,9.06l7.76,8.62,19.5-14c1.16-.86,1.75-2.34,1.74-4.46V0h3l0,21h-3V18.57a4.33,4.33,0,0,0,.06-3.08c-.27-.52-.6-.78-1-.78a2,2,0,0,0-1.14.4L136.47,25.4l4.89,5.6H151a2.61,2.61,0,0,0,1.75-.91,19,19,0,0,0,1.29-3V25h3l0,20h-4V41.84a4.2,4.2,0,0,0-.86-2.9,2.9,2.9,0,0,0-2.27-.94l-47,0a3.13,3.13,0,0,0-2.68,1.14A7.29,7.29,0,0,0,99,43.61V45Z"/></g><circle id="blue-dot" class="cls-1" cx="126.04" cy="228" r="32"/><circle id="black-dot-j" cx="52.54" cy="19.5" r="19.5"/></g></g></g></svg>