<svg xmlns="http://www.w3.org/2000/svg" viewBox="0 0 750 350.5"><defs><style>.cls-1{fill:#e0dfe4;}.cls-2,.cls-3{fill:#3d250d;}.cls-3{font-size:33.84px;letter-spacing:0.02em;}.cls-3,.cls-5,.cls-7{font-family:Modern-Regular, "Modern No. 20";}.cls-4,.cls-5{fill:#e4dad0;}.cls-5{font-size:33.52px;letter-spacing:0.02em;}.cls-6,.cls-7,.cls-8{fill:#232323;}.cls-7{font-size:34.59px;letter-spacing:0.02em;}.cls-8{font-size:12.19px;font-family:CorbelLight, Corbel;letter-spacing:0.02em;}</style></defs><g id="Layer_2" data-name="Layer 2"><g id="Layer_1-2" data-name="Layer 1"><rect class="cls-1" width="750" height="350.5"/><path class="cls-2" d="M73.7,168.27q2-2.49,4-5.2a110,110,0,0,0,14.9-13.66A51.78,51.78,0,0,0,101,137.17l-1.25-5.67q1.62-3,8-7t10.41-4a11,11,0,0,1,7.17,2.37q2.93,2.37,5.67,5c.92.55,1.58,1,2,1.3a21.52,21.52,0,0,1,7.48,9.82A41.38,41.38,0,0,1,143,154.2q0,4.73-3.86,13.54T135.29,181a1.14,1.14,0,0,0,.44,1,1.84,1.84,0,0,0,1.18.35,7.81,7.81,0,0,0,3.87-1.36,33.27,33.27,0,0,0,4.86-3.72q6.6-6.15,8-6.8a19.57,19.57,0,0,0,3.36-2.19q1,2.37,2.37,5.08t2.62,5.8c-.75.63-1.6,1.38-2.55,2.24s-2.1,1.86-3.43,3q-4.25,3-11,7.15t-16.27,9.64a23.42,23.42,0,0,1-5.73,2.48q-5.24,0-7.86-1.48a5.07,5.07,0,0,1-2.61-4.78,9.69,9.69,0,0,1,.56-3,27.17,27.17,0,0,1,1.56-3.72c.49-1,1-2.07,1.62-3.14a25.66,25.66,0,0,0,1.49-3.25,110.77,110.77,0,0,0,4.18-13.83,53.27,53.27,0,0,0,1.43-11.47q0-6.27-2-9.58a8,8,0,0,0-6.18-3.78,37,37,0,0,0-6,4,51.36,51.36,0,0,0-6.61,6.5,91.7,91.7,0,0,1-6.48,7,22.09,22.09,0,0,1-4.74,3.66,20.24,20.24,0,0,1-3.61,4,49.73,49.73,0,0,1-6.61,4.85L80.31,177a10,10,0,0,1-1.62,2.13c-.67-1.82-1.41-3.61-2.25-5.38S74.7,170.16,73.7,168.27Z"/><text class="cls-3" transform="translate(79.35 229.99)">roots</text><rect class="cls-2" x="347.34" y="102.14" width="145" height="145.73" transform="translate(244.83 594.84) rotate(-90)"/><path class="cls-4" d="M376,168.59q2-2.44,4-5.15a108.9,108.9,0,0,0,14.75-13.53,51.39,51.39,0,0,0,8.34-12.12l-1.24-5.62q1.61-2.92,8-6.91t10.31-4a10.94,10.94,0,0,1,7.1,2.34q2.91,2.34,5.62,4.92,1.37.83,2,1.29a21.22,21.22,0,0,1,7.41,9.72,40.9,40.9,0,0,1,2.47,15.11q0,4.68-3.83,13.41c-2.55,5.81-3.83,10.21-3.83,13.17a1.13,1.13,0,0,0,.43.94,1.79,1.79,0,0,0,1.18.35,7.83,7.83,0,0,0,3.83-1.34,32.87,32.87,0,0,0,4.81-3.69q6.56-6.09,7.91-6.74a19.6,19.6,0,0,0,3.33-2.17q1,2.35,2.35,5c.9,1.8,1.77,3.71,2.59,5.74-.74.63-1.59,1.37-2.53,2.23s-2.08,1.83-3.4,2.92q-4.2,2.94-10.93,7.09t-16.11,9.54a22.81,22.81,0,0,1-5.68,2.46c-3.46,0-6.06-.48-7.78-1.46a5,5,0,0,1-2.6-4.74,9.82,9.82,0,0,1,.56-3,27.91,27.91,0,0,1,1.54-3.69c.5-1,1-2,1.61-3.1a28.16,28.16,0,0,0,1.48-3.22,110,110,0,0,0,4.14-13.71,52.76,52.76,0,0,0,1.42-11.36q0-6.21-2-9.48a7.85,7.85,0,0,0-6.11-3.75,35.49,35.49,0,0,0-5.93,4,49.82,49.82,0,0,0-6.55,6.44,89.81,89.81,0,0,1-6.42,6.91,22,22,0,0,1-4.69,3.63,20.49,20.49,0,0,1-3.58,4,48.81,48.81,0,0,1-6.55,4.81c-.17.31-.41.78-.74,1.4a9.93,9.93,0,0,1-1.61,2.11c-.66-1.8-1.4-3.57-2.22-5.33S377,170.47,376,168.59Z"/><text class="cls-5" transform="translate(381.63 229.74)">roots</text><rect class="cls-6" x="531.02" y="102.14" width="145" height="145.73" transform="translate(428.52 778.52) rotate(-90)"/><path class="cls-4" d="M559.72,168.59q2-2.44,3.95-5.15a109,109,0,0,0,14.76-13.53,51.62,51.62,0,0,0,8.33-12.12l-1.23-5.62q1.61-2.92,8-6.91t10.32-4a11,11,0,0,1,7.1,2.34q2.9,2.34,5.62,4.92c.9.55,1.56,1,2,1.29a21.22,21.22,0,0,1,7.41,9.72,40.9,40.9,0,0,1,2.47,15.11q0,4.68-3.83,13.41c-2.55,5.81-3.83,10.21-3.83,13.17a1.14,1.14,0,0,0,.44.94,1.76,1.76,0,0,0,1.17.35,7.8,7.8,0,0,0,3.83-1.34A32.34,32.34,0,0,0,631,177.5q6.56-6.09,7.91-6.74a19.22,19.22,0,0,0,3.33-2.17q1,2.35,2.35,5t2.59,5.74c-.74.63-1.58,1.37-2.53,2.23s-2.08,1.83-3.39,2.92q-4.2,2.94-10.93,7.09t-16.12,9.54a22.81,22.81,0,0,1-5.68,2.46c-3.46,0-6-.48-7.78-1.46a5,5,0,0,1-2.6-4.74,9.82,9.82,0,0,1,.56-3,27.91,27.91,0,0,1,1.54-3.69c.5-1,1-2,1.61-3.1a26.54,26.54,0,0,0,1.48-3.22,110,110,0,0,0,4.14-13.71,52.76,52.76,0,0,0,1.42-11.36q0-6.21-2-9.48a7.85,7.85,0,0,0-6.11-3.75,35.9,35.9,0,0,0-5.93,4,51.08,51.08,0,0,0-6.55,6.44,87.86,87.86,0,0,1-6.42,6.91,21.71,21.71,0,0,1-4.69,3.63,20.49,20.49,0,0,1-3.58,4,48.81,48.81,0,0,1-6.55,4.81l-.74,1.4a9.84,9.84,0,0,1-1.6,2.11c-.66-1.8-1.4-3.57-2.23-5.33S560.7,170.47,559.72,168.59Z"/><text class="cls-5" transform="translate(565.31 229.74)">roots</text><path class="cls-6" d="M207.5,170.37c1.34-1.71,2.69-3.49,4-5.36a112.8,112.8,0,0,0,15.1-14.1,53.11,53.11,0,0,0,8.49-12.59l-1.33-5.79c1.09-2,3.8-4.42,8.16-7.2s7.88-4.19,10.6-4.21a11.23,11.23,0,0,1,7.35,2.35c2,1.59,4,3.27,5.85,5,.94.56,1.62,1,2.05,1.31a21.94,21.94,0,0,1,7.74,10,42.34,42.34,0,0,1,2.69,15.57q0,4.84-3.82,13.88t-3.83,13.63a1.12,1.12,0,0,0,.46,1,1.88,1.88,0,0,0,1.21.36,8,8,0,0,0,3.94-1.43,33.33,33.33,0,0,0,4.93-3.85c4.47-4.23,7.16-6.58,8.1-7a20.08,20.08,0,0,0,3.42-2.27c.69,1.61,1.51,3.33,2.47,5.18s1.86,3.81,2.73,5.9c-.76.65-1.63,1.42-2.59,2.32s-2.13,1.91-3.48,3.05q-4.31,3.06-11.21,7.42t-16.54,10a24,24,0,0,1-5.84,2.59q-5.35.06-8.05-1.43a5.2,5.2,0,0,1-2.72-4.87,10.1,10.1,0,0,1,.55-3.09,29.23,29.23,0,0,1,1.55-3.82c.5-1.05,1.05-2.13,1.63-3.22a27.55,27.55,0,0,0,1.5-3.34,113.48,113.48,0,0,0,4.14-14.18,54.64,54.64,0,0,0,1.36-11.74q-.06-6.4-2.2-9.77a8.11,8.11,0,0,0-6.34-3.81,38.18,38.18,0,0,0-6.08,4.17,52.3,52.3,0,0,0-6.69,6.71,94.77,94.77,0,0,1-6.56,7.19,22.87,22.87,0,0,1-4.81,3.79,21.13,21.13,0,0,1-3.66,4.14,49.82,49.82,0,0,1-6.71,5l-.75,1.46a10.32,10.32,0,0,1-1.64,2.19c-.7-1.85-1.48-3.67-2.34-5.48S208.54,172.29,207.5,170.37Z"/><text class="cls-7" transform="matrix(1, -0.01, 0.01, 1, 215.45, 233.43)">roots</text><text class="cls-8" transform="translate(209.64 248.02) rotate(-0.53) scale(1.09 1)">luxury interiors</text></g></g></svg>